<?xml version="1.0" standalone="no"?>
<!DOCTYPE svg PUBLIC "-//W3C//DTD SVG 20010904//EN"
 "http://www.w3.org/TR/2001/REC-SVG-20010904/DTD/svg10.dtd">
<svg version="1.0" xmlns="http://www.w3.org/2000/svg" class="ionicon"
 width="980.000000pt" height="950.000000pt" font-weight="bold" viewBox="0 0 980.000000 950.000000"
 preserveAspectRatio="xMidYMid meet">
<g transform="translate(0.000000,950.000000) scale(0.100000,-0.100000)"
stroke="none">
<path d="M4785 9490 c-74 -11 -94 -19 -107 -43 -18 -34 -27 -361 -28 -1022 -2
-894 -10 -1042 -80 -1357 -124 -557 -372 -982 -913 -1562 l-74 -80 -42 71
c-62 104 -71 144 -71 306 l0 141 99 151 c182 275 208 353 221 670 5 116 9 220
10 231 0 16 12 26 48 39 84 31 198 95 228 127 l29 31 -25 -6 c-14 -3 -52 -9
-85 -12 -81 -9 -90 1 -81 93 3 37 9 81 12 97 l5 30 -26 -30 c-14 -16 -58 -94
-96 -172 -39 -79 -74 -143 -79 -143 -5 0 -26 53 -48 118 l-40 117 -1 -131 c-1
-111 16 -359 34 -499 5 -38 4 -39 -11 -20 -8 11 -31 50 -50 87 -20 36 -45 75
-56 85 -21 18 -21 18 -14 -25 3 -23 22 -84 41 -135 19 -50 40 -115 46 -144
l12 -52 -44 -57 c-55 -72 -221 -244 -235 -244 -12 0 -26 43 -49 150 -37 170
-28 492 20 756 42 224 106 423 229 711 31 72 56 135 56 138 0 4 -21 -17 -46
-47 -44 -52 -92 -126 -150 -237 -16 -30 -34 -56 -40 -58 -6 -2 -32 37 -59 87
-72 136 -77 140 -71 53 3 -46 18 -111 40 -175 l36 -103 -44 -121 c-25 -67 -52
-136 -60 -153 -31 -59 -46 -40 -100 126 -43 130 -47 41 -11 -203 18 -117 28
-229 31 -364 5 -188 0 -231 -24 -216 -29 18 -302 445 -302 472 0 10 13 87 29
169 28 140 51 310 51 370 0 49 -24 20 -43 -50 -19 -72 -87 -243 -112 -282 -9
-13 -20 -23 -25 -23 -5 0 -57 46 -117 103 -79 75 -109 97 -111 85 -11 -57 226
-515 553 -1068 l163 -275 40 -425 40 -425 -75 -82 c-41 -46 -79 -83 -83 -83
-5 0 -73 58 -152 130 l-145 129 -66 228 c-81 276 -107 377 -107 415 0 15 22
95 50 176 69 204 97 372 62 372 -5 0 -27 -39 -48 -87 -42 -93 -124 -238 -169
-298 l-28 -36 -24 23 c-14 13 -35 41 -48 63 -20 36 -23 57 -28 200 -9 275 -47
399 -47 154 0 -134 -14 -260 -29 -259 -13 1 -105 128 -127 175 -13 28 -37 111
-54 185 -38 167 -81 299 -121 368 -28 49 -53 72 -65 59 -3 -2 13 -86 35 -185
69 -308 89 -472 57 -472 -24 0 -185 113 -281 198 -127 111 -155 123 -139 55
19 -74 116 -181 254 -277 70 -49 81 -60 64 -66 -10 -4 -84 -13 -164 -20 -161
-14 -186 -20 -150 -40 15 -8 102 -15 245 -21 122 -4 235 -11 251 -15 121 -28
262 -197 330 -397 22 -63 64 -265 64 -305 0 -12 -31 -13 -192 -10 -192 3 -193
3 -258 34 -97 46 -218 143 -327 261 -184 200 -232 248 -240 240 -18 -19 40
-137 122 -249 15 -20 26 -41 24 -47 -5 -15 -136 48 -216 104 -69 49 -83 53
-83 30 0 -64 116 -169 325 -295 66 -40 136 -84 155 -98 l34 -26 -24 -7 c-14
-4 -72 -8 -130 -9 -58 0 -123 -4 -144 -8 l-40 -7 28 -13 c52 -24 270 -54 489
-68 59 -4 107 -10 107 -14 0 -14 -107 -108 -182 -158 -110 -74 -117 -94 -24
-73 66 15 164 61 281 133 145 89 150 91 227 86 129 -10 246 -93 434 -307 l82
-95 -46 -60 c-26 -33 -81 -95 -122 -137 -62 -63 -93 -85 -179 -129 -217 -108
-421 -154 -659 -148 -165 4 -204 18 -298 112 -135 136 -268 386 -479 906 -37
91 -74 176 -82 190 -34 60 8 -179 66 -375 16 -55 34 -117 40 -138 l10 -39 -47
44 c-42 39 -160 118 -176 118 -3 0 42 -58 101 -128 149 -177 354 -474 339
-489 -6 -6 -46 21 -161 112 -115 91 -125 97 -104 65 67 -105 121 -200 117
-210 -8 -25 -330 168 -427 256 -23 20 -44 34 -47 31 -3 -3 -2 -21 1 -41 21
-111 197 -234 515 -361 94 -38 167 -72 163 -76 -14 -12 -204 -80 -281 -100
-199 -51 -485 -63 -604 -26 l-47 15 24 -32 c27 -36 90 -73 178 -106 31 -12 57
-25 57 -29 0 -10 -35 -26 -125 -58 -109 -39 -127 -63 -46 -63 62 0 194 34 441
115 341 111 457 134 850 165 290 23 494 50 610 80 41 10 76 17 79 15 10 -11
-24 -94 -57 -138 -99 -136 -569 -501 -715 -555 -134 -51 -230 -51 -482 0 -106
21 -189 31 -285 33 -111 4 -129 2 -100 -7 19 -6 80 -26 135 -44 55 -17 160
-55 232 -84 l133 -51 -78 -61 c-217 -172 -406 -439 -447 -634 -26 -124 -19
-127 40 -15 30 57 85 149 122 205 79 118 213 264 224 244 4 -7 15 -76 23 -153
9 -77 19 -151 22 -165 6 -25 6 -25 14 -3 5 12 25 102 44 200 20 98 38 187 41
199 4 16 59 47 242 134 339 162 386 182 380 168 -245 -614 -407 -961 -514
-1103 -92 -122 -266 -294 -393 -388 -153 -113 -174 -132 -167 -144 4 -7 39
-15 77 -19 79 -7 81 -11 55 -84 -8 -23 -15 -45 -15 -49 0 -3 76 73 169 169
l169 175 -60 -180 c-101 -303 -200 -738 -197 -868 l1 -42 22 50 c13 28 47 115
76 195 73 202 99 259 110 240 4 -8 19 -68 33 -133 24 -114 37 -152 37 -110 0
36 30 325 46 438 44 316 141 632 241 783 l38 57 6 -135 c4 -74 7 -385 9 -690
1 -521 5 -612 24 -581 20 33 50 309 64 611 l8 145 53 -105 c30 -58 67 -125 84
-150 28 -41 97 -125 97 -117 0 2 -20 57 -44 123 -94 254 -142 443 -171 674
-21 174 -31 375 -17 383 10 7 30 -23 103 -146 41 -70 116 -167 128 -167 5 0
-11 49 -35 110 -79 197 -89 244 -89 425 0 135 3 173 23 243 38 141 145 349
163 320 19 -29 128 -379 152 -488 14 -63 35 -182 47 -265 33 -230 63 -361 80
-350 4 3 6 121 4 262 l-4 258 37 -76 c21 -41 65 -133 97 -202 32 -70 60 -126
62 -124 2 2 -20 91 -50 198 -59 213 -70 259 -62 259 3 0 24 -7 46 -16 23 -9
43 -14 46 -11 3 3 -23 52 -59 109 -97 154 -173 295 -202 373 -34 89 -31 146
14 241 35 75 91 167 98 161 2 -3 15 -59 29 -126 53 -265 158 -523 312 -769
113 -183 132 -225 132 -298 0 -114 -81 -318 -239 -599 -69 -124 -76 -147 -32
-116 45 33 193 183 283 288 45 53 84 91 86 85 1 -5 -13 -71 -32 -146 -56 -217
-81 -386 -57 -386 6 0 39 45 76 100 62 95 135 180 153 180 11 0 39 -100 46
-158 5 -51 12 -60 29 -43 26 26 20 545 -10 721 l-5 35 45 -44 c25 -24 71 -87
103 -142 63 -106 82 -111 64 -19 -15 77 -46 127 -212 341 -301 386 -383 547
-409 792 -17 167 21 416 91 593 49 123 132 278 140 263 4 -8 10 -48 14 -89 9
-104 30 -178 83 -289 69 -147 101 -234 118 -316 16 -76 45 -158 51 -140 2 6
10 53 19 105 9 52 20 99 25 104 13 13 40 -37 105 -194 32 -76 69 -151 82 -167
l24 -28 -5 71 c-5 71 -81 317 -136 441 l-24 53 24 25 c14 15 72 58 130 97 58
39 110 75 115 81 15 14 -75 -1 -173 -29 -47 -14 -86 -23 -89 -21 -2 2 35 46
82 98 80 89 83 94 59 97 -50 6 -78 -10 -160 -89 l-81 -80 -16 39 c-9 22 -19
66 -22 98 -14 122 34 374 94 492 36 71 75 111 421 434 514 478 713 699 900
1001 41 66 80 122 86 124 5 2 18 -13 27 -33 25 -52 158 -253 230 -348 153
-202 281 -334 731 -754 191 -179 366 -348 387 -375 99 -125 157 -552 90 -656
-8 -12 -23 -2 -77 48 -37 35 -81 72 -98 82 -33 20 -86 26 -86 9 0 -5 36 -49
80 -97 43 -48 78 -89 76 -91 -2 -1 -60 12 -129 30 -177 46 -179 37 -12 -67 50
-31 102 -66 118 -79 l27 -22 -51 -135 c-88 -229 -135 -418 -109 -434 16 -10
21 0 71 120 68 164 117 265 128 265 10 0 41 -122 41 -167 0 -15 4 -34 9 -42
10 -16 28 35 65 188 17 71 44 141 86 225 63 128 94 227 106 345 3 39 10 71 14
71 14 0 126 -229 159 -324 48 -137 62 -236 63 -447 0 -173 -2 -190 -26 -262
-58 -173 -159 -339 -356 -587 -145 -183 -208 -276 -226 -338 -15 -49 -19 -116
-6 -108 4 2 32 45 61 94 29 49 73 112 98 138 l44 49 -5 -65 c-27 -312 -30
-581 -7 -666 13 -48 28 -38 34 23 4 32 14 82 22 112 l17 54 45 -44 c24 -24 73
-87 108 -141 69 -103 82 -117 91 -95 9 24 -23 205 -66 371 -22 87 -39 160 -37
162 2 2 46 -46 98 -107 130 -154 309 -323 309 -292 0 4 -25 53 -56 108 -147
266 -240 488 -251 600 -7 64 10 104 127 305 191 330 277 544 330 826 17 85 25
95 51 64 32 -39 104 -150 129 -199 20 -41 21 -50 11 -95 -16 -69 -97 -220
-220 -409 -57 -87 -100 -161 -97 -164 4 -4 22 1 41 10 20 9 38 17 40 17 12 0
1 -51 -50 -238 -30 -111 -55 -207 -55 -214 1 -14 65 117 131 268 71 163 71
165 64 -136 -5 -236 -4 -263 9 -246 19 23 29 73 71 337 19 119 44 256 55 305
25 108 137 451 150 459 17 11 137 -250 160 -346 27 -114 29 -307 5 -423 -16
-78 -60 -212 -76 -231 -16 -21 -48 -105 -39 -105 24 0 101 104 182 244 18 33
39 61 46 64 27 9 8 -310 -34 -551 -20 -118 -71 -294 -137 -471 -30 -80 -51
-146 -47 -146 17 0 115 145 170 252 l58 111 5 -74 c4 -41 11 -157 17 -259 14
-249 45 -440 71 -440 6 0 7 117 3 318 -6 305 9 1022 22 1056 11 28 27 12 70
-68 107 -201 192 -557 229 -956 24 -268 24 -266 55 -115 14 72 30 141 35 155
8 24 9 23 28 -20 10 -25 35 -88 54 -140 108 -297 143 -362 129 -242 -26 219
-133 654 -221 897 -19 53 -35 99 -35 102 0 4 70 -65 156 -152 150 -155 180
-174 156 -105 -14 40 -2 47 98 63 l84 13 -70 43 c-298 189 -558 465 -679 724
-110 237 -368 853 -363 867 3 8 590 -268 606 -285 6 -6 29 -102 52 -215 23
-113 45 -209 50 -213 9 -10 15 29 30 187 13 126 22 151 49 136 63 -33 222
-252 322 -442 59 -112 60 -113 54 -63 -9 71 -42 180 -75 245 -82 162 -243 356
-385 465 -42 32 -72 62 -68 66 13 12 291 115 413 154 l115 36 -140 -5 c-96 -3
-176 -13 -255 -30 -269 -58 -401 -56 -536 8 -210 99 -657 466 -718 589 -14 28
-26 61 -26 72 l0 22 103 -24 c115 -26 352 -58 502 -68 449 -28 532 -43 910
-165 254 -83 400 -120 468 -120 85 0 61 20 -93 78 -42 15 -75 33 -75 41 0 7
27 23 61 35 73 27 119 54 158 95 34 36 34 36 -64 15 -100 -21 -334 -13 -475
16 -107 23 -236 63 -323 102 l-54 23 139 54 c234 91 382 172 475 259 68 63
101 132 64 132 -8 0 -84 -47 -169 -104 -156 -105 -282 -174 -294 -163 -3 4 24
56 60 116 37 60 67 111 67 114 0 4 -47 -31 -106 -76 -136 -106 -164 -124 -164
-105 0 29 229 356 340 488 67 78 86 110 68 110 -15 0 -72 -45 -152 -119 -27
-25 -46 -38 -43 -29 60 172 124 422 133 522 l5 51 -27 -50 c-15 -27 -66 -145
-115 -260 -245 -589 -385 -819 -541 -890 -214 -97 -727 0 -975 186 -54 40
-227 242 -221 259 2 5 47 59 101 120 158 177 283 266 392 277 81 8 114 -2 216
-68 52 -33 123 -76 159 -94 101 -51 220 -81 220 -56 0 6 -39 37 -87 70 -102
70 -195 149 -188 160 2 5 55 11 117 15 202 13 425 44 483 68 l30 13 -45 7
c-25 3 -88 7 -141 7 -113 1 -159 9 -159 26 0 7 46 37 103 66 226 119 407 264
407 328 0 17 -2 31 -5 31 -2 0 -44 -26 -92 -57 -95 -61 -191 -109 -200 -99 -3
3 24 50 61 105 61 91 106 185 93 197 -12 12 -62 -35 -180 -169 -184 -209 -308
-308 -433 -347 -56 -17 -94 -20 -239 -20 l-172 0 12 79 c52 324 166 532 340
616 53 26 63 28 283 35 201 7 296 19 279 36 -3 3 -72 12 -153 20 -172 17 -197
21 -189 34 3 4 40 33 83 63 88 62 207 184 228 233 16 37 19 84 5 84 -9 0 -58
-38 -159 -127 -73 -64 -163 -128 -221 -157 -28 -15 -35 -16 -42 -4 -15 21 0
126 56 401 29 141 49 257 46 257 -3 0 -19 -16 -34 -36 -57 -71 -114 -225 -162
-439 -14 -66 -35 -138 -44 -160 -16 -36 -113 -155 -131 -163 -15 -6 -20 46
-21 203 -1 183 -10 232 -27 145 -19 -93 -32 -220 -32 -315 0 -95 -15 -140 -63
-192 -19 -22 -22 -22 -39 -6 -45 41 -151 230 -216 386 -7 15 -17 25 -22 22
-30 -18 12 -246 75 -410 44 -114 46 -125 34 -188 -9 -54 -90 -344 -145 -522
l-24 -80 -141 -125 c-77 -69 -143 -126 -147 -128 -4 -1 -43 34 -86 77 l-79 80
42 433 42 433 137 230 c321 543 566 1003 579 1090 l5 40 -68 -66 c-104 -98
-162 -149 -173 -149 -20 0 -124 253 -145 353 -10 46 -26 30 -26 -27 0 -76 15
-185 52 -366 l31 -156 -113 -174 c-141 -220 -199 -302 -209 -295 -14 8 -21
197 -12 335 5 74 21 207 36 294 25 148 27 226 6 226 -4 0 -16 -30 -26 -67 -24
-92 -55 -165 -69 -160 -12 4 -57 107 -101 233 l-29 80 31 95 c38 113 56 206
44 226 -6 11 -22 -12 -62 -83 -30 -54 -59 -99 -65 -101 -6 -2 -28 29 -49 69
-50 96 -114 194 -159 243 l-36 40 26 -60 c152 -351 239 -621 280 -870 15 -87
19 -165 19 -375 0 -244 -2 -272 -23 -357 -13 -51 -28 -96 -34 -99 -12 -8 -158
135 -229 222 -60 76 -61 94 -13 229 89 249 71 284 -37 74 -42 -81 -45 -68 -24
127 20 193 30 403 21 440 -7 26 -12 17 -44 -81 -21 -60 -41 -110 -47 -109 -5
0 -41 64 -80 140 -63 126 -113 209 -122 201 -1 -2 4 -41 12 -88 19 -104 19
-104 -2 -124 -13 -14 -28 -16 -81 -10 -36 4 -73 9 -81 12 -9 4 0 -11 19 -31
33 -35 147 -97 233 -127 l37 -13 0 -152 c0 -362 34 -482 213 -748 45 -67 89
-143 99 -171 23 -66 24 -250 3 -323 -17 -55 -93 -177 -111 -177 -6 0 -57 50
-113 110 -510 548 -774 1023 -890 1600 -33 166 -40 334 -51 1210 -12 925 -18
1067 -47 1096 -32 32 -204 47 -328 29z"/>
<path d="M3556 8530 c-285 -45 -673 -224 -1024 -473 -505 -358 -1029 -915
-1427 -1517 -399 -603 -638 -1145 -819 -1851 -368 -1435 -381 -3238 -31 -4144
163 -423 349 -579 638 -537 128 19 192 53 433 233 390 291 620 413 1338 709
863 355 1137 536 1294 854 77 157 87 205 86 431 0 117 -8 281 -19 395 -26 263
-26 612 -2 770 25 161 77 419 162 816 112 514 123 596 141 963 l6 144 -27 -21
c-15 -12 -72 -64 -125 -115 l-97 -93 -7 -109 c-12 -177 -45 -355 -191 -1040
-132 -619 -140 -707 -110 -1170 10 -148 18 -381 19 -516 l1 -246 -44 -88 c-79
-154 -248 -311 -480 -444 -128 -73 -206 -108 -676 -301 -451 -186 -509 -212
-708 -311 -256 -129 -417 -229 -738 -459 -97 -70 -198 -136 -224 -146 -29 -11
-76 -18 -120 -18 -64 -1 -75 2 -109 27 -104 80 -236 355 -305 637 -189 771
-199 1973 -26 2987 75 434 185 884 309 1253 132 396 365 859 635 1265 601 904
1404 1611 2071 1823 205 65 435 80 525 34 90 -45 190 -202 214 -334 43 -237
37 -1009 -13 -1530 -11 -125 -11 -127 7 -110 28 25 104 140 183 277 l69 120
12 180 c57 868 -5 1283 -227 1506 -67 68 -113 97 -210 131 -64 23 -284 33
-384 18z"/>
<path d="M5891 8524 c-144 -38 -268 -144 -343 -291 -100 -193 -129 -352 -135
-743 -5 -287 13 -651 38 -773 14 -65 68 -168 167 -317 67 -100 77 -111 80 -88
2 14 -4 138 -13 275 -35 532 -30 1209 10 1381 31 132 118 262 203 304 42 21
60 23 182 22 196 0 358 -45 610 -165 372 -179 697 -424 1080 -815 562 -573
1007 -1250 1283 -1950 421 -1069 613 -2690 462 -3899 -63 -500 -187 -919 -328
-1112 -77 -103 -127 -125 -241 -104 -81 15 -113 33 -311 176 -481 346 -675
449 -1470 774 -203 84 -428 181 -500 216 -314 154 -523 332 -617 523 l-33 67
1 290 c0 161 9 405 18 550 28 409 16 512 -144 1250 -111 515 -149 720 -156
850 -3 55 -10 114 -16 132 -6 21 -48 69 -121 139 l-112 106 -3 -63 c-6 -111
18 -417 44 -568 14 -80 54 -285 90 -456 177 -846 175 -833 181 -1105 4 -166 0
-284 -17 -515 -27 -371 -24 -575 10 -675 64 -187 167 -331 341 -475 189 -158
399 -262 1144 -570 597 -247 815 -367 1237 -678 258 -189 309 -211 488 -212
104 0 120 3 173 27 67 32 172 128 227 208 147 216 262 585 339 1087 66 429 81
1343 31 1888 -94 1018 -342 1979 -692 2680 -409 817 -1060 1611 -1733 2110
-468 349 -922 537 -1289 534 -63 0 -134 -7 -165 -15z"/>
</g>
</svg>
